<?xml version="1.0" encoding="UTF-8" standalone="no"?>
<svg
   xmlns:dc="http://purl.org/dc/elements/1.1/"
   xmlns:cc="http://creativecommons.org/ns#"
   xmlns:rdf="http://www.w3.org/1999/02/22-rdf-syntax-ns#"
   xmlns:svg="http://www.w3.org/2000/svg"
   xmlns="http://www.w3.org/2000/svg"
   xmlns:sodipodi="http://sodipodi.sourceforge.net/DTD/sodipodi-0.dtd"
   xmlns:inkscape="http://www.inkscape.org/namespaces/inkscape"
   width="32"
   height="31"
   viewBox="0 0 32 31"
   fill="none"
   version="1.1"
   id="svg4"
   sodipodi:docname="whatsapp.svg"
   inkscape:version="0.92.3 (2405546, 2018-03-11)">
  <metadata
     id="metadata10">
    <rdf:RDF>
      <cc:Work
         rdf:about="">
        <dc:format>image/svg+xml</dc:format>
        <dc:type
           rdf:resource="http://purl.org/dc/dcmitype/StillImage" />
        <dc:title></dc:title>
      </cc:Work>
    </rdf:RDF>
  </metadata>
  <defs
     id="defs8" />
  <sodipodi:namedview
     pagecolor="#ffffff"
     bordercolor="#666666"
     borderopacity="1"
     objecttolerance="10"
     gridtolerance="10"
     guidetolerance="10"
     inkscape:pageopacity="0"
     inkscape:pageshadow="2"
     inkscape:window-width="1366"
     inkscape:window-height="705"
     id="namedview6"
     showgrid="false"
     inkscape:zoom="7.6129032"
     inkscape:cx="16"
     inkscape:cy="15.5"
     inkscape:window-x="-8"
     inkscape:window-y="-8"
     inkscape:window-maximized="1"
     inkscape:current-layer="svg4" />
  <path
     fill-rule="evenodd"
     clip-rule="evenodd"
     d="M0.583984 15.5C0.583984 6.95294 7.53692 0 16.084 0C24.631 0 31.584 6.95294 31.584 15.5C31.584 24.0471 24.631 31 16.084 31C13.2582 31 10.5022 30.2351 8.09552 28.7853L1.95156 30.6751C1.74529 30.7383 1.51875 30.6846 1.36196 30.5338C1.20518 30.383 1.14377 30.1588 1.201 29.949C1.20225 29.9446 1.21547 29.8962 1.23884 29.8107C1.4389 29.0787 2.38284 25.6248 2.93104 23.7043C1.39416 21.2463 0.583984 18.4158 0.583984 15.5ZM21.644 16.8125C22.1223 17.1211 22.7777 17.5439 23.5473 17.9655C23.7016 18.0499 23.7855 18.2211 23.7558 18.3927C23.36 20.7379 21.9544 21.9201 19.5727 21.9201C19.169 21.9201 18.7377 21.8864 18.2776 21.8185C14.2293 21.2193 11.0539 17.531 9.81674 14.3578C8.68974 11.4665 11.0614 9.08098 11.1627 8.98098C11.2211 8.92378 11.2954 8.88469 11.3759 8.86864C12.213 8.70403 12.7606 8.74148 13.0038 8.98098C13.2461 9.22007 14.5859 11.5858 14.5859 12.1525C14.5859 12.7023 14.3135 13.1854 13.5573 13.9533C13.6662 14.5854 14.4078 15.5133 15.5865 16.4824C16.741 17.431 17.9027 18.0824 18.1508 18.1207C18.3656 18.0779 19.0993 17.2824 19.6612 16.4507C19.6762 16.4285 19.6937 16.4075 19.7133 16.3882C19.8693 16.2326 20.2793 16.0446 20.8203 16.3108C21.0138 16.4067 21.2778 16.5767 21.6432 16.812L21.644 16.8125Z"
     fill="#E4192E"
     id="path2"
     style="fill:#000000" />
</svg>
