<svg width="255" height="48" viewBox="0 0 255 48" fill="none" xmlns="http://www.w3.org/2000/svg">
<path d="M32.7584 16.6905L49.1367 33.0688L54.5962 27.6094L38.2178 11.231L32.7584 16.6905Z" fill="#E4192E"/>
<path d="M38.414 22.2798L49.1689 33.0347L49.1532 47.6895L38.3965 36.9328L38.414 22.2798Z" fill="#A81919"/>
<path d="M16.4648 22.0312L27.2197 32.788L27.2022 47.4409L16.4473 36.686L16.4648 22.0312Z" fill="#A81919"/>
<path d="M0.0702205 27.5381L5.52989 32.9978L5.51241 47.6507L0.0527344 42.1928L0.0702205 27.5381Z" fill="#A81919"/>
<path d="M27.2974 33.0693L43.6758 16.6909L38.2163 11.2315L21.838 27.6098L27.2974 33.0693Z" fill="#E4192E"/>
<path d="M10.9185 16.69L27.2969 33.0684L32.7563 27.6089L16.378 11.2305L10.9185 16.69Z" fill="#E4192E"/>
<path d="M5.45952 33.0688L21.8379 16.6904L16.3784 11.231L6.55362e-05 27.6093L5.45952 33.0688Z" fill="#E4192E"/>
<path d="M22.8866 13.5335L22.8878 13.5348C25.3218 15.9688 29.2681 15.9688 31.7021 13.5348L31.7033 13.5335C34.1373 11.0995 34.1373 7.15324 31.7033 4.71925L31.7021 4.71802C29.2681 2.28402 25.3218 2.28402 22.8878 4.71801L22.8865 4.71925C20.4526 7.15324 20.4526 11.0995 22.8866 13.5335Z" fill="#E4192E"/>
<path d="M82.9102 28.6909L83.2196 25.7292H83.1091L82.2913 28.3815L79.7716 33.8187H78.8433L76.1689 28.3594L75.3511 25.685H75.2185L75.6385 28.6688V36.6699H73.0083V21.1982H75.6827L78.9096 27.8952L79.4401 29.8182H79.5285L80.0369 27.851L83.0649 21.1982H85.6951V36.6699H82.9102V28.6909ZM92.1062 21.1982H99.842V23.7621H94.8911V27.5637H99.3779V30.1276H94.8911V34.106H99.9305V36.6699H92.1062V21.1982ZM117.451 39.4327H115.484L115.218 36.6699H107.262L106.996 39.4327H105.029V34.106H106.377C106.466 33.944 106.598 33.5756 106.775 33.0009C106.967 32.4263 107.158 31.6158 107.35 30.5696C107.542 29.5235 107.696 28.2268 107.814 26.6796C107.947 25.1324 108.006 23.3053 107.991 21.1982H115.859V34.106H117.451V39.4327ZM113.075 34.106V23.7621H110.621C110.547 26.3702 110.371 28.5583 110.091 30.3265C109.825 32.0947 109.553 33.3546 109.273 34.106H113.075ZM130.495 28.4257L130.716 26.2376H130.606L129.766 28.5804L125.367 36.6699H123.179V21.1982H125.964V29.2877L125.721 31.5422H125.831L126.716 29.133L131.114 21.1982H133.28V36.6699H130.495V28.4257ZM148.462 36.0511C148.078 36.3752 147.563 36.611 146.914 36.7583C146.281 36.9057 145.647 36.9794 145.014 36.9794C144.218 36.9794 143.474 36.8467 142.781 36.5815C142.103 36.3015 141.507 35.8448 140.991 35.2112C140.475 34.5776 140.07 33.745 139.775 32.7136C139.481 31.6821 139.333 30.4149 139.333 28.912C139.333 27.3501 139.495 26.0534 139.82 25.0219C140.158 23.9905 140.593 23.1727 141.124 22.5686C141.669 21.9497 142.288 21.515 142.98 21.2645C143.673 21.014 144.373 20.8888 145.08 20.8888C145.802 20.8888 146.428 20.9477 146.959 21.0656C147.504 21.1835 147.946 21.3161 148.285 21.4634L147.732 23.9168C147.452 23.7695 147.121 23.6589 146.738 23.5853C146.369 23.4969 145.927 23.4527 145.411 23.4527C144.395 23.4527 143.614 23.8947 143.069 24.7788C142.523 25.6629 142.251 27.048 142.251 28.9341C142.251 29.7445 142.31 30.4886 142.428 31.1664C142.56 31.8295 142.759 32.4041 143.024 32.8904C143.304 33.3767 143.651 33.7524 144.063 34.0176C144.49 34.2829 144.999 34.4155 145.588 34.4155C146.104 34.4155 146.546 34.3492 146.914 34.2165C147.283 34.0692 147.614 33.8997 147.909 33.7082L148.462 36.0511ZM159.622 33.1777H155.975L155.069 36.6699H152.306L156.793 21.0877H158.981L163.49 36.6699H160.573L159.622 33.1777ZM156.572 30.8791H159.136L158.252 27.2764L157.898 24.8451H157.81L157.434 27.2985L156.572 30.8791ZM175.867 30.1276H171.645V36.6699H168.86V21.1982H171.645V27.5637H175.867V21.1982H178.652V36.6699H175.867V30.1276ZM191.321 33.1777H187.674L186.768 36.6699H184.005L188.492 21.0877H190.68L195.189 36.6699H192.271L191.321 33.1777ZM188.271 30.8791H190.835L189.951 27.2764L189.597 24.8451H189.509L189.133 27.2985L188.271 30.8791ZM209.4 24.7788C209.4 25.1619 209.356 25.545 209.268 25.9281C209.194 26.2965 209.069 26.6501 208.892 26.989C208.715 27.3132 208.479 27.6005 208.185 27.851C207.905 28.1015 207.566 28.2931 207.168 28.4257V28.5583C207.522 28.6467 207.853 28.7793 208.163 28.9562C208.487 29.133 208.767 29.3761 209.002 29.6855C209.238 29.9802 209.422 30.3486 209.555 30.7907C209.702 31.218 209.776 31.7263 209.776 32.3157C209.776 33.1114 209.636 33.804 209.356 34.3934C209.091 34.968 208.722 35.4396 208.251 35.8079C207.794 36.1763 207.256 36.4489 206.637 36.6257C206.019 36.8025 205.363 36.8909 204.67 36.8909C204.464 36.8909 204.199 36.8909 203.875 36.8909C203.55 36.8909 203.197 36.8762 202.814 36.8467C202.445 36.832 202.062 36.8025 201.664 36.7583C201.267 36.7141 200.898 36.6478 200.559 36.5594V21.3087C201.046 21.2203 201.642 21.1466 202.35 21.0877C203.072 21.014 203.786 20.9772 204.494 20.9772C205.142 20.9772 205.761 21.0288 206.35 21.1319C206.954 21.235 207.477 21.4266 207.919 21.7066C208.376 21.9865 208.737 22.377 209.002 22.878C209.268 23.3642 209.4 23.9978 209.4 24.7788ZM204.737 34.4818C205.356 34.4818 205.864 34.2829 206.262 33.885C206.66 33.4872 206.858 32.9051 206.858 32.1389C206.858 31.6527 206.792 31.2696 206.66 30.9896C206.527 30.6949 206.35 30.4739 206.129 30.3265C205.908 30.1644 205.65 30.0613 205.356 30.0171C205.076 29.9729 204.781 29.9508 204.471 29.9508H203.344V34.3492C203.462 34.3934 203.661 34.4302 203.941 34.4597C204.236 34.4744 204.501 34.4818 204.737 34.4818ZM203.985 27.7626C204.147 27.7626 204.331 27.7553 204.538 27.7405C204.759 27.7111 204.936 27.6816 205.068 27.6521C205.496 27.49 205.857 27.2248 206.151 26.8564C206.461 26.4881 206.615 26.0092 206.615 25.4198C206.615 25.0367 206.564 24.7125 206.461 24.4473C206.358 24.182 206.218 23.9757 206.041 23.8284C205.864 23.6663 205.65 23.5558 205.4 23.4969C205.164 23.4232 204.906 23.3863 204.626 23.3863C204.022 23.3863 203.595 23.4158 203.344 23.4748V27.7626H203.985ZM215.815 21.1982H223.551V23.7621H218.6V27.5637H223.087V30.1276H218.6V34.106H223.639V36.6699H215.815V21.1982ZM238.507 36.0511C238.124 36.3752 237.609 36.611 236.96 36.7583C236.327 36.9057 235.693 36.9794 235.059 36.9794C234.264 36.9794 233.52 36.8467 232.827 36.5815C232.149 36.3015 231.553 35.8448 231.037 35.2112C230.521 34.5776 230.116 33.745 229.821 32.7136C229.527 31.6821 229.379 30.4149 229.379 28.912C229.379 27.3501 229.541 26.0534 229.865 25.0219C230.204 23.9905 230.639 23.1727 231.169 22.5686C231.715 21.9497 232.334 21.515 233.026 21.2645C233.719 21.014 234.419 20.8888 235.126 20.8888C235.848 20.8888 236.474 20.9477 237.005 21.0656C237.55 21.1835 237.992 21.3161 238.331 21.4634L237.778 23.9168C237.498 23.7695 237.167 23.6589 236.783 23.5853C236.415 23.4969 235.973 23.4527 235.457 23.4527C234.441 23.4527 233.66 23.8947 233.114 24.7788C232.569 25.6629 232.297 27.048 232.297 28.9341C232.297 29.7445 232.356 30.4886 232.474 31.1664C232.606 31.8295 232.805 32.4041 233.07 32.8904C233.35 33.3767 233.697 33.7524 234.109 34.0176C234.536 34.2829 235.045 34.4155 235.634 34.4155C236.15 34.4155 236.592 34.3492 236.96 34.2165C237.329 34.0692 237.66 33.8997 237.955 33.7082L238.507 36.0511ZM253.43 23.7621H249.761V36.6699H246.977V23.7621H243.308V21.1982H253.43V23.7621Z" fill="#010101"/>
</svg>
