<svg width="80" height="80" viewBox="0 0 80 80" fill="none" xmlns="http://www.w3.org/2000/svg">
<path d="M0 40C0 17.9078 17.9078 0 40 0C62.0922 0 80 17.9078 80 40C80 62.0922 62.0922 80 40 80C33.081 80 26.4151 78.2401 20.5069 74.9375C20.4031 74.9873 20.2531 75.0773 20.0401 75.2201C19.9489 75.2807 19.2294 75.7775 18.969 75.9503C18.4482 76.2953 17.9519 76.5948 17.4089 76.8816C14.0751 78.6409 9.74043 79.4725 3.51631 79.0555C2.37925 78.9793 1.89204 77.5746 2.73747 76.8108C4.89937 74.8564 7.12195 72.3759 8.63163 70.2338C9.38467 69.1657 9.92472 68.2303 10.1989 67.5252C10.3057 67.2504 10.3639 67.0308 10.3795 66.8826C3.74312 59.5747 0.000107819 50.0792 0.000107819 40.0009L0 40ZM16.2043 74.5991C16.6651 74.3561 17.0894 74.0998 17.543 73.7992C17.777 73.6444 18.491 73.1506 18.6063 73.0738C19.6335 72.3879 20.3116 72.1365 21.2135 72.4269C21.3617 72.4743 21.5045 72.5373 21.6431 72.6153C27.1989 75.7493 33.4764 77.4198 39.9995 77.4198C60.6661 77.4198 77.4188 60.6656 77.4188 40.0005C77.4188 19.3353 60.6646 2.58111 39.9995 2.58111C19.3343 2.58111 2.58012 19.3353 2.58012 40.0005C2.58012 49.4889 6.1239 58.4198 12.4052 65.2754C14.1512 67.1805 11.1607 72.027 6.69994 76.5825C10.848 76.5663 13.8459 75.845 16.2045 74.6L16.2043 74.5991Z" fill="#E4192E"/>
<path d="M29.8458 54.9971L39.6925 48.1454C40.1353 47.8375 40.7233 47.8375 41.1662 48.1454L51.0129 54.9971L47.5393 43.5154C47.3827 42.9988 47.5645 42.4395 47.9947 42.1137L57.5534 34.8664L45.5605 34.6222C45.021 34.6108 44.5452 34.2652 44.3682 33.7557L40.4295 22.4252L36.4908 33.7557C36.3138 34.2652 35.8379 34.6108 35.2985 34.6222L23.305 34.8664L32.8641 42.1137C33.2943 42.4395 33.4755 42.9988 33.3195 43.5154L29.8458 54.9971ZM40.4292 50.7764L28.273 59.2357C27.2685 59.9347 25.9466 58.9741 26.3006 57.8028L30.5891 43.6275L18.7876 34.6804C17.8125 33.9411 18.3177 32.387 19.5406 32.3618L34.3478 32.06L39.2105 18.0713C39.6119 16.9157 41.2464 16.9157 41.6478 18.0713L46.5105 32.06L61.3171 32.3618C62.5406 32.387 63.0452 33.941 62.0707 34.6804L50.2686 43.6275L54.5577 57.8028C54.9117 58.9741 53.5898 59.9347 52.5853 59.2357L40.4292 50.7764Z" fill="#E4192E"/>
</svg>
