<svg width="31" height="31" viewBox="0 0 31 31" fill="none" xmlns="http://www.w3.org/2000/svg">
<path fill-rule="evenodd" clip-rule="evenodd" d="M14.2129 14.2193V8.44001H14.4488V14.2193H20.464V14.4552H14.4488V20.4703H14.2129V14.4552H8.43367V14.2193H14.2129Z" fill="white"/>
<path d="M28.9749 29.6883C29.1701 29.8836 29.4867 29.8836 29.682 29.6883C29.8772 29.493 29.8772 29.1765 29.682 28.9812L28.9749 29.6883ZM23.6668 22.9661C23.4715 22.7708 23.155 22.7708 22.9597 22.9661C22.7644 23.1613 22.7644 23.4779 22.9597 23.6732L23.6668 22.9661ZM14.2129 8.44001V7.94001H13.7129V8.44001H14.2129ZM14.2129 14.2193V14.7193H14.7129V14.2193H14.2129ZM14.4488 8.44001H14.9488V7.94001H14.4488V8.44001ZM14.4488 14.2193H13.9488V14.7193H14.4488V14.2193ZM20.464 14.2193H20.964V13.7193H20.464V14.2193ZM20.464 14.4552V14.9552H20.964V14.4552H20.464ZM14.4488 14.4552V13.9552H13.9488V14.4552H14.4488ZM14.4488 20.4703V20.9703H14.9488V20.4703H14.4488ZM14.2129 20.4703H13.7129V20.9703H14.2129V20.4703ZM14.2129 14.4552H14.7129V13.9552H14.2129V14.4552ZM8.43367 14.4552H7.93367V14.9552H8.43367V14.4552ZM8.43367 14.2193V13.7193H7.93367V14.2193H8.43367ZM26.2957 14.1386C26.2957 20.8563 20.8499 26.3021 14.1322 26.3021V27.3021C21.4022 27.3021 27.2957 21.4086 27.2957 14.1386H26.2957ZM14.1322 26.3021C7.41453 26.3021 1.96875 20.8563 1.96875 14.1386H0.96875C0.96875 21.4086 6.86224 27.3021 14.1322 27.3021V26.3021ZM1.96875 14.1386C1.96875 7.42087 7.41453 1.9751 14.1322 1.9751V0.975098C6.86224 0.975098 0.96875 6.86859 0.96875 14.1386H1.96875ZM14.1322 1.9751C20.8499 1.9751 26.2957 7.42087 26.2957 14.1386H27.2957C27.2957 6.86859 21.4022 0.975098 14.1322 0.975098V1.9751ZM29.682 28.9812L23.6668 22.9661L22.9597 23.6732L28.9749 29.6883L29.682 28.9812ZM13.7129 8.44001V14.2193H14.7129V8.44001H13.7129ZM14.4488 7.94001H14.2129V8.94001H14.4488V7.94001ZM14.9488 14.2193V8.44001H13.9488V14.2193H14.9488ZM20.464 13.7193H14.4488V14.7193H20.464V13.7193ZM20.964 14.4552V14.2193H19.964V14.4552H20.964ZM14.4488 14.9552H20.464V13.9552H14.4488V14.9552ZM14.9488 20.4703V14.4552H13.9488V20.4703H14.9488ZM14.2129 20.9703H14.4488V19.9703H14.2129V20.9703ZM13.7129 14.4552V20.4703H14.7129V14.4552H13.7129ZM8.43367 14.9552H14.2129V13.9552H8.43367V14.9552ZM7.93367 14.2193V14.4552H8.93367V14.2193H7.93367ZM14.2129 13.7193H8.43367V14.7193H14.2129V13.7193Z" fill="white"/>
<path fill-rule="evenodd" clip-rule="evenodd" d="M14.1384 1.94976C7.40678 1.94976 1.94976 7.40678 1.94976 14.1384C1.94976 20.8699 7.40678 26.327 14.1384 26.327C20.8699 26.327 26.327 20.8699 26.327 14.1384C26.327 7.40678 20.8699 1.94976 14.1384 1.94976ZM1 14.1384C1 6.88224 6.88224 1 14.1384 1C21.3945 1 27.2767 6.88224 27.2767 14.1384C27.2767 17.5956 25.9414 20.7409 23.7583 23.0868L29.6703 28.9987C29.8558 29.1842 29.8558 29.4849 29.6703 29.6703C29.4849 29.8558 29.1842 29.8558 28.9987 29.6703L23.0868 23.7583C20.7409 25.9414 17.5956 27.2767 14.1384 27.2767C6.88224 27.2767 1 21.3945 1 14.1384ZM13.7442 8.55774C13.7442 8.23033 14.0096 7.96491 14.337 7.96491C14.6644 7.96491 14.9298 8.23033 14.9298 8.55774V13.7442H20.3522C20.6796 13.7442 20.945 14.0096 20.945 14.337C20.945 14.6644 20.6796 14.9298 20.3522 14.9298H14.9298V20.3522C14.9298 20.6796 14.6644 20.945 14.337 20.945C14.0096 20.945 13.7442 20.6796 13.7442 20.3522V14.9298H8.55774C8.23033 14.9298 7.96491 14.6644 7.96491 14.337C7.96491 14.0096 8.23033 13.7442 8.55774 13.7442H13.7442V8.55774Z" fill="white" stroke="white"/>
</svg>
