<svg width="31" height="31" viewBox="0 0 31 31" fill="none" xmlns="http://www.w3.org/2000/svg">
<path fill-rule="evenodd" clip-rule="evenodd" d="M31 15.5C31 24.0604 24.0604 31 15.5 31C6.93959 31 0 24.0604 0 15.5C0 6.93959 6.93959 0 15.5 0C24.0604 0 31 6.93959 31 15.5ZM15.8421 11.1924C14.4539 11.8311 11.6794 13.153 7.51867 15.1581C6.84303 15.4553 6.4891 15.746 6.45688 16.0303C6.40243 16.5108 6.94636 16.6999 7.68706 16.9576C7.78781 16.9926 7.89221 17.0289 7.99923 17.0674C8.72796 17.3294 9.70824 17.6359 10.2178 17.6481C10.6801 17.6592 11.196 17.4484 11.7656 17.0157C15.6532 14.1131 17.6599 12.646 17.7859 12.6143C17.8748 12.592 17.9979 12.564 18.0814 12.646C18.1649 12.7281 18.1567 12.8834 18.1478 12.9251C18.0939 13.1792 15.9588 15.3749 14.8538 16.5111C14.5094 16.8654 14.265 17.1166 14.2151 17.174C14.1032 17.3025 13.9892 17.4241 13.8796 17.541C13.2026 18.2629 12.6949 18.8043 13.9077 19.6883C14.4905 20.1131 14.9569 20.4644 15.4222 20.8149C15.9303 21.1976 16.4371 21.5794 17.0928 22.0549C17.2599 22.176 17.4195 22.3018 17.5749 22.4244C18.1662 22.8907 18.6975 23.3096 19.3538 23.2428C19.7352 23.204 20.1292 22.8073 20.3292 21.6243C20.802 18.8284 21.7314 12.7705 21.9462 10.2742C21.9651 10.0555 21.9414 9.77556 21.9224 9.65269C21.9034 9.52982 21.8636 9.35476 21.7192 9.22516C21.5482 9.07168 21.2842 9.03932 21.1662 9.04162C20.6294 9.05208 19.8057 9.36885 15.8421 11.1924Z" fill="black"/>
</svg>
