<svg width="19" height="19" viewBox="0 0 19 19" fill="none" xmlns="http://www.w3.org/2000/svg">
<path d="M17.7673 16.7219C18.4872 16.0622 18.9175 15.1449 18.9645 14.1696C19.0114 13.1943 18.6713 12.2399 18.0181 11.5141L17.4587 10.9547C16.7754 10.3273 15.879 9.98318 14.9514 9.99214C14.0237 10.0011 13.1342 10.3624 12.4631 11.0029C11.6782 10.4752 10.9423 9.8781 10.2642 9.21879C9.60325 8.54393 9 7.81486 8.4608 7.03923C9.10951 6.36962 9.47782 5.47741 9.49037 4.54518C9.50292 3.61294 9.15876 2.71115 8.5283 2.02431L7.96895 1.46496C7.24316 0.811748 6.28876 0.471613 5.31345 0.518574C4.33813 0.565533 3.42082 0.995787 2.76115 1.71571L1.79674 2.68011C1.40537 3.07903 1.13789 3.58275 1.02665 4.13041C0.915408 4.67807 0.965154 5.24622 1.16988 5.76622C2.3437 8.57544 4.04246 11.135 6.17515 13.3079C8.35905 15.4333 10.9286 17.1223 13.7457 18.2842C14.2657 18.4889 14.8339 18.5387 15.3816 18.4274C15.9292 18.3162 16.4329 18.0487 16.8319 17.6574L17.7673 16.7219ZM14.4787 16.5001C14.1315 16.3554 13.6397 16.1432 13.0514 15.8539C12.8585 15.7575 12.656 15.6417 12.4342 15.526C10.6391 14.5727 8.98933 13.3679 7.53497 11.9481C6.74895 11.1465 6.02969 10.2821 5.38434 9.36345C4.99857 8.82339 4.66103 8.28332 4.36207 7.78183C4.0631 7.28034 3.84129 6.81742 3.62912 6.43166C3.33979 5.84337 3.12762 5.35152 2.98296 5.00433C2.91889 4.84136 2.90392 4.6632 2.93991 4.49182C2.9759 4.32045 3.06127 4.16335 3.18549 4.03993L4.1499 3.07552C4.44865 2.718 4.87604 2.49231 5.33977 2.4472C5.80349 2.40209 6.26636 2.54118 6.62842 2.83442L7.18778 3.39377C7.47991 3.75703 7.61736 4.22065 7.57044 4.68443C7.52352 5.14822 7.296 5.57491 6.93703 5.8723L5.97263 6.78849C6.2523 7.26105 6.57056 7.75289 6.93703 8.2351C7.50948 9.07172 8.15494 9.85595 8.86585 10.5786C10.0319 11.6932 11.327 12.6645 12.7235 13.4718L13.6107 12.5846C13.9081 12.2256 14.3348 11.9981 14.7986 11.9512C15.2624 11.9042 15.726 12.0417 16.0893 12.3338L16.6486 12.8932C16.9419 13.2552 17.0809 13.7181 17.0358 14.1818C16.9907 14.6456 16.765 15.073 16.4075 15.3717L15.4431 16.3361C15.3155 16.4539 15.1564 16.532 14.9852 16.5612C14.814 16.5903 14.6381 16.569 14.4787 16.5001Z" fill="#E4192E"/>
</svg>
